# xmcd
#
# Track frame offsets:
#	150
#	13596
#	26775
#
# Disc length: 569 seconds
#
# Revision: 0
# Processed by: cddbd v1.5.2PL0 Copyright (c) Steve Scherf et al.
# Submitted via: audiograbber 1.83.01
#
DISCID=1b023703
DTITLE=Andrea&Manuela - Unsere Lieder....
DYEAR=2007
DGENRE=Volksmusik
TTITLE0=Unsere Lieder sind unsere Träume
TTITLE1=Sing mit mir die alten Lieder
TTITLE2=Mach die Augen zu und schlaf ein
EXTD=
EXTT0=
EXTT1=
EXTT2=
PLAYORDER=
